<?xml version="1.0" encoding="UTF-8" standalone="no"?>
<!DOCTYPE svg PUBLIC "-//W3C//DTD SVG 1.1//EN" "http://www.w3.org/Graphics/SVG/1.1/DTD/svg11.dtd">
<svg width="100%" height="100%" viewBox="0 0 16 16" version="1.1" xmlns="http://www.w3.org/2000/svg" xmlns:xlink="http://www.w3.org/1999/xlink" xml:space="preserve" xmlns:serif="http://www.serif.com/" style="fill-rule:evenodd;clip-rule:evenodd;stroke-miterlimit:10;">
    <path d="M15,1C15,8.7 11.9,15 8,15C4.1,15 1,8.7 1,1L15,1Z" style="fill:none;fill-rule:nonzero;stroke:white;stroke-width:1px;"/>
    <g transform="matrix(1,0,0,1,1,0)">
        <path d="M4,2.5L12,2.5" style="fill:none;fill-rule:nonzero;stroke:white;stroke-width:1px;"/>
    </g>
    <g transform="matrix(1,0,0,1,4,0)">
        <path d="M4,4.5L9,4.5" style="fill:none;fill-rule:nonzero;stroke:white;stroke-width:1px;"/>
    </g>
    <g transform="matrix(0.603651,0,0,1,5.75619,0)">
        <path d="M4,8.5L12,8.5" style="fill:none;fill-rule:nonzero;stroke:white;stroke-width:1px;"/>
    </g>
    <g transform="matrix(0.603651,0,0,1,4.4837,2.27379)">
        <path d="M4,8.5L12,8.5" style="fill:none;fill-rule:nonzero;stroke:white;stroke-width:1px;"/>
    </g>
    <g transform="matrix(1,0,0,1,4,0)">
        <path d="M9,6.5L4,6.5" style="fill:none;fill-rule:nonzero;stroke:white;stroke-width:1px;"/>
    </g>
    <g transform="matrix(1,0,0,1,-6.40417,0.271186)">
        <circle cx="11.5" cy="5.5" r="1" style="fill:white;stroke:white;stroke-width:1px;"/>
    </g>
</svg>
